{"title":"No Problem 2010 DvDScr x264 400Mb - Henry ","uid":6031489,"size":420018532,"categoryP":"video","categoryS":"movies","magnet":"?xt=urn:btih:7551a3aeb28f198ff10ddf2271cf2e220274f753&amp;dn=No+Problem+2010+DvDScr+x264+400Mb+-+Henry+&amp;tr=udp%3A%2F%2Ftracker.openbittorrent.com%3A80&amp;tr=udp%3A%2F%2Fopen.demonii.com%3A1337&amp;tr=udp%3A%2F%2Ftracker.coppersurfer.tk%3A6969&amp;tr=udp%3A%2F%2Fexodus.desync.com%3A6969","seeders":0,"leechers":0,"uploader":"imsingh","files":4,"time":1292096919,"description":"EXCLUSIVE DHAMAKA FROM Henry\n\n-----------------------------------------------------------------------------------\nFormat                           : Matroska\nFile size                        : 397 MiB\nDuration                         : 2h 5mn\nOverall bit rate                 : 441 Kbps\nMovie name                       : No Problem 2010 DvDScr x264 - Henry Kharay\nEncoded date                     : UTC 2010-12-11 16:07:59\nWriting application              : mkvmerge v4.2.0 ('No Talking') built on Jul 28 2010 18:38:23\nWriting library                  : libebml v1.0.0 + libmatroska v1.0.0\n-----------------------------------------------------------------------------------\nVideo\nID                               : 1\nFormat                           : AVC\nFormat/Info                      : Advanced Video Codec\nFormat profile                   : &lt;a class=&quot;__cf_email__&quot; href=&quot;/cdn-cgi/l/email-protection&quot; data-cfemail=&quot;3b73525c537b7709150a&quot;&gt;[email&amp;#160;protected]&lt;/a&gt;&lt;script cf-hash='f9e31' type=&quot;text/javascript&quot;&gt;\n/* &lt;![CDATA[ */!function(){try{var t=&quot;currentScript&quot;in document?document.currentScript:function(){for(var t=document.getElementsByTagName(&quot;script&quot;),e=t.length;e--;)if(t[e].getAttribute(&quot;cf-hash&quot;))return t[e]}();if(t&amp;&amp;t.previousSibling){var e,r,n,i,c=t.previousSibling,a=c.getAttribute(&quot;data-cfemail&quot;);if(a){for(e=&quot;&quot;,r=parseInt(a.substr(0,2),16),n=2;a.length-n;n+=2)i=parseInt(a.substr(n,2),16)^r,e+=String.fromCharCode(i);e=document.createTextNode(e),c.parentNode.replaceChild(e,c)}}}catch(u){}}();/* ]]&gt; */&lt;/script&gt;\nFormat settings, CABAC           : Yes\nFormat settings, ReFrames        : 4 frames\nMuxing mode                      : Container profile=&lt;a class=&quot;__cf_email__&quot; href=&quot;/cdn-cgi/l/email-protection&quot; data-cfemail=&quot;14417a7f7a7b637a54263a25&quot;&gt;[email&amp;#160;protected]&lt;/a&gt;&lt;script cf-hash='f9e31' type=&quot;text/javascript&quot;&gt;\n/* &lt;![CDATA[ */!function(){try{var t=&quot;currentScript&quot;in document?document.currentScript:function(){for(var t=document.getElementsByTagName(&quot;script&quot;),e=t.length;e--;)if(t[e].getAttribute(&quot;cf-hash&quot;))return t[e]}();if(t&amp;&amp;t.previousSibling){var e,r,n,i,c=t.previousSibling,a=c.getAttribute(&quot;data-cfemail&quot;);if(a){for(e=&quot;&quot;,r=parseInt(a.substr(0,2),16),n=2;a.length-n;n+=2)i=parseInt(a.substr(n,2),16)^r,e+=String.fromCharCode(i);e=document.createTextNode(e),c.parentNode.replaceChild(e,c)}}}catch(u){}}();/* ]]&gt; */&lt;/script&gt;\nCodec ID                         : V_MPEG4/ISO/AVC\nDuration                         : 2h 5mn\nBit rate                         : 344 Kbps\nWidth                            : 688 pixels\nHeight                           : 240 pixels\nDisplay aspect ratio             : 2.867\nFrame rate                       : 25.000 fps\nColor space                      : YUV\nChroma subsampling               : 4:2:0\nBit depth                        : 8 bits\nScan type                        : Progressive\nBits/(Pixel*Frame)               : 0.083\nStream size                      : 303 MiB (76%)\nWriting library                  : x264 \n-----------------------------------------------------------------------------------\nAudio\nID                               : 2\nFormat                           : MPEG Audio\nFormat version                   : Version 2\nFormat profile                   : Layer 3\nMode                             : Joint stereo\nMode extension                   : MS Stereo\nCodec ID                         : A_MPEG/L3\nCodec ID/Hint                    : MP3\nDuration                         : 2h 5mn\nBit rate mode                    : Variable\nBit rate                         : 95.6 Kbps\nNominal bit rate                 : 128 Kbps\nChannel(s)                       : 2 channels\nSampling rate                    : 24.0 KHz\nStream size                      : 86.1 MiB (22%)\nWriting library                  : LAME3.98r\nEncoding settings                : -m j -V 4 -q 2 -lowpass 12 --abr 128\n &lt;a href=&quot;\nhttp://bapugunda.com/images.php?i=4538_9.png&quot; rel=&quot;nofollow&quot; target=&quot;_NEW&quot;&gt;\nhttp://bapugunda.com/images.php?i=4538_9.png&lt;/a&gt; &lt;a href=&quot;\nhttp://bapugunda.com/images.php?i=4539_10.png&quot; rel=&quot;nofollow&quot; target=&quot;_NEW&quot;&gt;\nhttp://bapugunda.com/images.php?i=4539_10.png&lt;/a&gt; &lt;a href=&quot;\nhttp://bapugunda.com/images.php?i=4537_8.png&quot; rel=&quot;nofollow&quot; target=&quot;_NEW&quot;&gt;\nhttp://bapugunda.com/images.php?i=4537_8.png&lt;/a&gt;\n\nSample Include In Torrent \n\nThnx \nkeep Seeding\n\n","torrent":{"xt":"urn:btih:7551a3aeb28f198ff10ddf2271cf2e220274f753","amp;dn":"No+Problem+2010+DvDScr+x264+400Mb+-+Henry+","amp;tr":["udp%3A%2F%2Ftracker.openbittorrent.com%3A80","udp%3A%2F%2Fopen.demonii.com%3A1337","udp%3A%2F%2Ftracker.coppersurfer.tk%3A6969","udp%3A%2F%2Fexodus.desync.com%3A6969"],"infoHash":"7551a3aeb28f198ff10ddf2271cf2e220274f753","infoHashBuffer":{"type":"Buffer","data":[117,81,163,174,178,143,25,143,241,13,223,34,113,207,46,34,2,116,247,83]},"announce":[],"urlList":[]}}